<?xml version="1.0" encoding="UTF-8"?>
<svg xmlns="http://www.w3.org/2000/svg" id="Layer_1" data-name="Layer 1" viewBox="0 0 702.29 246.61">
  <defs>
    <style>.cls-1{fill:#231f20;}.cls-2{fill:none;}.cls-3{fill:#8fd1c1;}.cls-4{fill:#978aa4;}.cls-5{fill:#020202;opacity:0.43;}.cls-6{fill:#51797d;}.cls-7{fill:#f59297;}.cls-8{fill:#845578;}.cls-9{fill:#7fc78c;}.cls-10{fill:#459789;}.cls-11{fill:#fabd84;}.cls-12{fill:#6d995c;}.cls-13{fill:#fcc9b3;}.cls-14{fill:#ce6564;}.cls-15{fill:#f47f5f;}</style>
  </defs>
  <title>ilprs</title>
  <path class="cls-1" d="M273.4,149.34v-41.4h7.82v41.4Z"></path>
  <path class="cls-1" d="M290.85,149.34V119.25h7.7v2.59a13.87,13.87,0,0,1,8.79-3.31,10.36,10.36,0,0,1,7.7,3,10.59,10.59,0,0,1,3,7.79v20h-7.76V130.75a5.45,5.45,0,0,0-1.48-3.94,5,5,0,0,0-3.82-1.54,8.81,8.81,0,0,0-6.44,3.19v20.88Z"></path>
  <path class="cls-1" d="M335.92,110.77v8.48h8.67v6.2h-8.67v13.9a4.15,4.15,0,0,0,1.2,3.07,4.34,4.34,0,0,0,3.19,1.2,9.82,9.82,0,0,0,4.28-1.2v6.38a17.47,17.47,0,0,1-6.32,1.26,10,10,0,0,1-7.22-2.7,9.25,9.25,0,0,1-2.83-7V125.45H323v-6.2h5.18v-8.48Z"></path>
  <path class="cls-1" d="M348.62,134.06a15.47,15.47,0,0,1,4.18-11.17,14.18,14.18,0,0,1,10.68-4.36,12.13,12.13,0,0,1,9.57,4.18q3.68,4.19,3.67,10.86a25.64,25.64,0,0,1-.12,2.83H356.2a8.14,8.14,0,0,0,2.86,5.57,9.35,9.35,0,0,0,6.29,2.14,18.2,18.2,0,0,0,9-2.83v6.44a24.69,24.69,0,0,1-10.23,2.34A14.8,14.8,0,0,1,353,145.58,15.89,15.89,0,0,1,348.62,134.06Zm7.58-2.65h13.12a8,8,0,0,0-1.87-5,5.42,5.42,0,0,0-4.27-1.92,6.55,6.55,0,0,0-4.78,1.92A7.57,7.57,0,0,0,356.2,131.41Z"></path>
  <path class="cls-1" d="M382.86,149.34V119.25h7.7v3c2.25-2.49,4.71-3.73,7.4-3.73a9.13,9.13,0,0,1,2.53.3v6.86a9.81,9.81,0,0,0-2.71-.36c-2.77,0-5.17,1.3-7.22,3.91v20.1Z"></path>
  <path class="cls-1" d="M406.27,149.34V106.07H414v43.27Z"></path>
  <path class="cls-1" d="M420.35,134.06a15.47,15.47,0,0,1,4.18-11.17,14.18,14.18,0,0,1,10.68-4.36,12.13,12.13,0,0,1,9.57,4.18q3.68,4.19,3.67,10.86a25.64,25.64,0,0,1-.12,2.83h-20.4a8.14,8.14,0,0,0,2.86,5.57,9.35,9.35,0,0,0,6.29,2.14,18.2,18.2,0,0,0,9-2.83v6.44a24.69,24.69,0,0,1-10.23,2.34,14.8,14.8,0,0,1-11.13-4.48A15.89,15.89,0,0,1,420.35,134.06Zm7.58-2.65h13.12a8,8,0,0,0-1.87-5,5.42,5.42,0,0,0-4.27-1.92,6.55,6.55,0,0,0-4.78,1.92A7.57,7.57,0,0,0,427.93,131.41Z"></path>
  <path class="cls-1" d="M481.55,106.07v43.27h-7.76v-2.1a12.08,12.08,0,0,1-7.65,2.82,12.36,12.36,0,0,1-9.81-4.39q-3.78-4.39-3.79-11.37t3.79-11.38a12.62,12.62,0,0,1,17.46-1.62V106.07Zm-19.08,21.61a11.76,11.76,0,0,0,0,13.24,6.58,6.58,0,0,0,5.36,2.52,8.05,8.05,0,0,0,6-2.7V127.86a8,8,0,0,0-6-2.71A6.56,6.56,0,0,0,462.47,127.68Z"></path>
  <path class="cls-1" d="M516.87,119.25V149a13.3,13.3,0,0,1-4.36,10.26,15.94,15.94,0,0,1-11.22,4,27.19,27.19,0,0,1-10.6-2.28v-6.74a20.77,20.77,0,0,0,9.87,2.94,8.74,8.74,0,0,0,6.17-2.19,7.45,7.45,0,0,0,2.38-5.75v-2a12.07,12.07,0,0,1-7.64,2.82,12.33,12.33,0,0,1-9.81-4.39q-3.8-4.39-3.79-11.37t3.79-11.38a12.61,12.61,0,0,1,17.45-1.62v-2Zm-19.07,8.43a11.71,11.71,0,0,0,0,13.24,6.55,6.55,0,0,0,5.35,2.52,8,8,0,0,0,6-2.7V127.86a8,8,0,0,0-6-2.71A6.53,6.53,0,0,0,497.8,127.68Z"></path>
  <path class="cls-1" d="M523.19,134.06a15.47,15.47,0,0,1,4.18-11.17,14.18,14.18,0,0,1,10.68-4.36,12.12,12.12,0,0,1,9.57,4.18q3.68,4.19,3.67,10.86a25.64,25.64,0,0,1-.12,2.83h-20.4a8.18,8.18,0,0,0,2.86,5.57,9.37,9.37,0,0,0,6.29,2.14,18.2,18.2,0,0,0,9-2.83v6.44a24.72,24.72,0,0,1-10.23,2.34,14.8,14.8,0,0,1-11.14-4.48A15.89,15.89,0,0,1,523.19,134.06Zm7.58-2.65h13.12a8.1,8.1,0,0,0-1.86-5,5.45,5.45,0,0,0-4.28-1.92,6.56,6.56,0,0,0-4.78,1.92A7.57,7.57,0,0,0,530.77,131.41Z"></path>
  <path class="cls-1" d="M557.43,149.34V119.25h7.7v3q3.38-3.74,7.41-3.73a9.06,9.06,0,0,1,2.52.3v6.86a9.81,9.81,0,0,0-2.71-.36q-4.14,0-7.22,3.91v20.1Z"></path>
  <path class="cls-1" d="M576,148.77a4.5,4.5,0,0,1-1.3-3.34,4.4,4.4,0,0,1,1.3-3.31,5,5,0,0,1,6.67,0,4.4,4.4,0,0,1,1.3,3.31,4.73,4.73,0,0,1-8,3.34Z"></path>
  <path class="cls-1" d="M591.07,149.34V119.25h7.7v3q3.38-3.74,7.4-3.73a9.08,9.08,0,0,1,2.53.3v6.86a9.81,9.81,0,0,0-2.71-.36q-4.14,0-7.22,3.91v20.1Z"></path>
  <path class="cls-1" d="M613.34,148v-6.8a16.5,16.5,0,0,0,8.72,2.77,5.39,5.39,0,0,0,3.31-.94,2.83,2.83,0,0,0,1.26-2.37,2.58,2.58,0,0,0-1.44-2.26A14.89,14.89,0,0,0,621.7,137a39.48,39.48,0,0,1-4.09-1.48,8.38,8.38,0,0,1-3.49-2.8,7.85,7.85,0,0,1-1.45-4.87,8.19,8.19,0,0,1,3.22-6.68,12.79,12.79,0,0,1,8.28-2.59,22,22,0,0,1,8.54,1.75V127a15.32,15.32,0,0,0-8-2.35,5.2,5.2,0,0,0-3.13.87,2.63,2.63,0,0,0-1.2,2.2,2.41,2.41,0,0,0,1.44,2.13,16.33,16.33,0,0,0,3.49,1.42,37.2,37.2,0,0,1,4.09,1.47,8.2,8.2,0,0,1,4.94,7.86,8.45,8.45,0,0,1-3.28,6.86,13.18,13.18,0,0,1-8.52,2.64A23.21,23.21,0,0,1,613.34,148Z"></path>
  <path class="cls-2" d="M216.21,93.49l0,0A39.78,39.78,0,0,0,222.25,116a40.28,40.28,0,0,0,6.44,7.87h0a40,40,0,0,1-12.51-30.33Z"></path>
  <path class="cls-2" d="M145.16,94.41a75.56,75.56,0,0,1-24.34,26,75.57,75.57,0,0,1,11.25,34.84,76.4,76.4,0,0,1,34.71,8,75.43,75.43,0,0,1,24.89-27,75.67,75.67,0,0,1-11.13-33.42A76.33,76.33,0,0,1,145.16,94.41Z"></path>
  <path class="cls-3" d="M119.38,121.32a75.57,75.57,0,0,1-33.11,11.22,41.09,41.09,0,0,1,3.9,5.23,39.83,39.83,0,0,1,5.65,27.07,75.58,75.58,0,0,1,36.25-9.64,75.57,75.57,0,0,0-11.25-34.84C120.34,120.68,119.87,121,119.38,121.32Z"></path>
  <path class="cls-4" d="M116.69,69A39.88,39.88,0,0,1,92,93.37a75.54,75.54,0,0,1,28.73,26.75l.14.24a75.56,75.56,0,0,0,24.34-25.95A75.62,75.62,0,0,1,116.69,69Z"></path>
  <path class="cls-5" d="M119.38,121.32c.49-.31,1-.64,1.44-1l-.14-.24A75.54,75.54,0,0,0,92,93.37a39.74,39.74,0,0,1-15.18,2.06,87.12,87.12,0,0,0-4.51,14,85.69,85.69,0,0,0-1.89,12.16,39.67,39.67,0,0,1,15.9,11A75.57,75.57,0,0,0,119.38,121.32Z"></path>
  <path class="cls-6" d="M119.38,121.32c.49-.31,1-.64,1.44-1l-.14-.24A75.54,75.54,0,0,0,92,93.37a39.74,39.74,0,0,1-15.18,2.06,87.12,87.12,0,0,0-4.51,14,85.69,85.69,0,0,0-1.89,12.16,39.67,39.67,0,0,1,15.9,11A75.57,75.57,0,0,0,119.38,121.32Z"></path>
  <path class="cls-5" d="M216.17,93.52l0,0a40.27,40.27,0,0,1,6-19.88h0A40.21,40.21,0,0,0,216.17,93.52Z"></path>
  <path class="cls-7" d="M180.54,102.79a76.25,76.25,0,0,1,6.51-38,40.12,40.12,0,0,1-32-7.94,76.22,76.22,0,0,1-9.85,37.6A76.33,76.33,0,0,0,180.54,102.79Z"></path>
  <path class="cls-5" d="M116.69,69a75.62,75.62,0,0,0,28.47,25.42A76.22,76.22,0,0,0,155,56.81a39.94,39.94,0,0,1-9.1-10.17c-.65-1-1.23-2.08-1.77-3.15a86,86,0,0,0-25.33,7.69A40.28,40.28,0,0,1,116.69,69Z"></path>
  <path class="cls-8" d="M116.69,69a75.62,75.62,0,0,0,28.47,25.42A76.22,76.22,0,0,0,155,56.81a39.94,39.94,0,0,1-9.1-10.17c-.65-1-1.23-2.08-1.77-3.15a86,86,0,0,0-25.33,7.69A40.28,40.28,0,0,1,116.69,69Z"></path>
  <path class="cls-9" d="M132.07,155.2a76.2,76.2,0,0,1-6,35.09,40.07,40.07,0,0,1,31.38,8,76.2,76.2,0,0,1,9.29-35.05A76.4,76.4,0,0,0,132.07,155.2Z"></path>
  <path class="cls-5" d="M126.11,190.29a76.2,76.2,0,0,0,6-35.09,75.58,75.58,0,0,0-36.25,9.64,40.13,40.13,0,0,1-7,17.42,85.78,85.78,0,0,0,18.09,17,40.16,40.16,0,0,1,4.71-3.45A39.63,39.63,0,0,1,126.11,190.29Z"></path>
  <path class="cls-10" d="M126.11,190.29a76.2,76.2,0,0,0,6-35.09,75.58,75.58,0,0,0-36.25,9.64,40.13,40.13,0,0,1-7,17.42,85.78,85.78,0,0,0,18.09,17,40.16,40.16,0,0,1,4.71-3.45A39.63,39.63,0,0,1,126.11,190.29Z"></path>
  <path class="cls-5" d="M228.69,123.82a39.89,39.89,0,0,0,13.4,8.34h0a39.9,39.9,0,0,1-13.37-8.33Z"></path>
  <path class="cls-11" d="M194.88,187.36a40.08,40.08,0,0,1,22.6-25.87,75.67,75.67,0,0,1-25.67-25l-.14-.24a75.43,75.43,0,0,0-24.89,27A75.46,75.46,0,0,1,194.88,187.36Z"></path>
  <path class="cls-5" d="M194.88,187.36a75.46,75.46,0,0,0-28.1-24.16,76.2,76.2,0,0,0-9.29,35.05,40,40,0,0,1,9.21,10.24,40.76,40.76,0,0,1,2.75,5.22,86,86,0,0,0,24.68-7.82A40,40,0,0,1,194.88,187.36Z"></path>
  <path class="cls-12" d="M194.88,187.36a75.46,75.46,0,0,0-28.1-24.16,76.2,76.2,0,0,0-9.29,35.05,40,40,0,0,1,9.21,10.24,40.76,40.76,0,0,1,2.75,5.22,86,86,0,0,0,24.68-7.82A40,40,0,0,1,194.88,187.36Z"></path>
  <path class="cls-13" d="M216.17,93.52a75.45,75.45,0,0,1-35.63,9.27,75.67,75.67,0,0,0,11.13,33.42c.48-.32,1-.65,1.44-1a75.61,75.61,0,0,1,35.58-11.43,40.28,40.28,0,0,1-6.44-7.87A39.78,39.78,0,0,1,216.17,93.52Z"></path>
  <path class="cls-5" d="M187.05,64.75a76.25,76.25,0,0,0-6.51,38,75.45,75.45,0,0,0,35.63-9.27,40.21,40.21,0,0,1,6-19.92A86,86,0,0,0,204,57.22c-1,.74-2,1.44-3,2.1A39.81,39.81,0,0,1,187.05,64.75Z"></path>
  <path class="cls-14" d="M187.05,64.75a76.25,76.25,0,0,0-6.51,38,75.45,75.45,0,0,0,35.63-9.27,40.21,40.21,0,0,1,6-19.92A86,86,0,0,0,204,57.22c-1,.74-2,1.44-3,2.1A39.81,39.81,0,0,1,187.05,64.75Z"></path>
  <path class="cls-5" d="M193.11,135.25c-.49.31-1,.64-1.44,1l.14.24a75.67,75.67,0,0,0,25.67,25,39.88,39.88,0,0,1,19.39-3.13,84.26,84.26,0,0,0,5.22-26.2,39.89,39.89,0,0,1-13.4-8.34A75.61,75.61,0,0,0,193.11,135.25Z"></path>
  <path class="cls-15" d="M193.11,135.25c-.49.31-1,.64-1.44,1l.14.24a75.67,75.67,0,0,0,25.67,25,39.88,39.88,0,0,1,19.39-3.13,84.26,84.26,0,0,0,5.22-26.2,39.89,39.89,0,0,1-13.4-8.34A75.61,75.61,0,0,0,193.11,135.25Z"></path>
</svg>
